<svg width="24" height="7" viewBox="0 0 24 7" fill="none" xmlns="http://www.w3.org/2000/svg">
<g clip-path="url(#clip0_620_42653)">
<g clip-path="url(#clip1_620_42653)">
<path d="M5.66275 0H1.97073C1.9478 -1.83011e-08 1.92509 0.00446848 1.9039 0.0131507C1.88272 0.0218329 1.86347 0.0345583 1.84726 0.0505989C1.83106 0.0666394 1.81821 0.0856807 1.80945 0.106634C1.80069 0.127587 1.7962 0.150041 1.79623 0.172711V1.09435C1.79617 1.18086 1.76136 1.26382 1.69945 1.32497C1.63754 1.38613 1.5536 1.42048 1.46608 1.42048H0.174501C0.128221 1.42048 0.0838355 1.43865 0.0511102 1.471C0.0183849 1.50335 1.6956e-08 1.54722 1.6956e-08 1.59297V4.72149C-2.91038e-05 4.90972 0.0374518 5.09611 0.110303 5.27002C0.183153 5.44393 0.289947 5.60195 0.424584 5.73506C0.559222 5.86816 0.719066 5.97375 0.894989 6.04579C1.07091 6.11783 1.25947 6.15491 1.44989 6.15491H2.55078C2.59463 6.15492 2.63689 6.13864 2.66918 6.10932L3.74856 5.12763C3.77354 5.10495 3.80466 5.08995 3.83812 5.08446C3.87157 5.07896 3.90593 5.08322 3.93698 5.0967C3.96804 5.11017 3.99445 5.13229 4.01301 5.16036C4.03156 5.18843 4.04145 5.22122 4.04146 5.25475V5.98219C4.04146 6.028 4.05987 6.07193 4.09264 6.10432C4.1254 6.13671 4.16985 6.15491 4.21619 6.15491H5.66275C5.70909 6.15491 5.75353 6.13671 5.7863 6.10432C5.81906 6.07193 5.83747 6.028 5.83747 5.98219V4.90823C5.83747 4.86243 5.81906 4.8185 5.7863 4.78611C5.75353 4.75372 5.70909 4.73552 5.66275 4.73552H1.97073C1.92445 4.73552 1.88007 4.71735 1.84734 4.685C1.81462 4.65265 1.79623 4.60878 1.79623 4.56303V1.71374C1.79623 1.71111 1.79623 1.70848 1.79623 1.70585C1.79623 1.63028 1.8266 1.55781 1.88066 1.50437C1.93471 1.45094 2.00803 1.42092 2.08448 1.42092H5.66275C5.70909 1.42092 5.75353 1.40272 5.7863 1.37033C5.81906 1.33794 5.83747 1.29401 5.83747 1.24821V0.172711C5.83747 0.126905 5.81906 0.0829751 5.7863 0.0505855C5.75353 0.0181959 5.70909 0 5.66275 0Z" fill="white"/>
<path d="M6.36865 1.79023V5.98219C6.36865 6.028 6.38706 6.07193 6.41983 6.10432C6.45259 6.13671 6.49704 6.15491 6.54338 6.15491H7.99016C8.0365 6.15491 8.08094 6.13671 8.11371 6.10432C8.14648 6.07193 8.16488 6.028 8.16488 5.98219V1.59297C8.16488 1.54722 8.18327 1.50335 8.21599 1.471C8.24872 1.43865 8.2931 1.42048 8.33938 1.42048H9.63096C9.67476 1.42054 9.71696 1.40426 9.74914 1.37489L10.4101 0.773911L11.2622 1.3418e-08H8.18018C7.94232 -2.8771e-05 7.70678 0.0462539 7.48701 0.136206C7.26724 0.226158 7.06755 0.358017 6.89933 0.524256C6.73111 0.690494 6.59767 0.887855 6.50661 1.10507C6.41556 1.32229 6.36868 1.55511 6.36865 1.79023Z" fill="white"/>
<path d="M17.4558 0H16.0091C15.9627 0 15.9183 0.0181959 15.8855 0.0505855C15.8527 0.0829751 15.8343 0.126905 15.8343 0.172711V4.56215C15.8343 4.58482 15.8298 4.60727 15.821 4.62821C15.8123 4.64915 15.7994 4.66818 15.7832 4.6842C15.7669 4.70022 15.7477 4.71292 15.7265 4.72158C15.7053 4.73023 15.6826 4.73467 15.6596 4.73464H13.7636C13.7173 4.73464 13.6729 4.71647 13.6402 4.68412C13.6075 4.65177 13.5891 4.6079 13.5891 4.56215V0.172711C13.5891 0.126905 13.5707 0.0829751 13.5379 0.0505855C13.5052 0.0181959 13.4607 0 13.4144 0H11.9674C11.9444 -1.83011e-08 11.9217 0.00446848 11.9005 0.0131507C11.8794 0.0218329 11.8601 0.0345583 11.8439 0.0505989C11.8277 0.0666394 11.8149 0.0856807 11.8061 0.106634C11.7973 0.127587 11.7928 0.150041 11.7929 0.172711V4.38484C11.7928 4.61728 11.8391 4.84744 11.9291 5.0622C12.0191 5.27695 12.151 5.47208 12.3172 5.63645C12.4835 5.80082 12.6809 5.93121 12.8981 6.02016C13.1154 6.10912 13.3482 6.15491 13.5833 6.15491H14.3443C14.3881 6.15497 14.4303 6.13869 14.4625 6.10932L15.5417 5.12784C15.5666 5.10508 15.5977 5.09 15.6312 5.08444C15.6646 5.07889 15.699 5.0831 15.7301 5.09657C15.7612 5.11004 15.7876 5.13218 15.8062 5.16027C15.8247 5.18836 15.8346 5.2212 15.8346 5.25475V5.98219C15.8346 6.028 15.853 6.07193 15.8857 6.10432C15.9185 6.13671 15.9629 6.15491 16.0093 6.15491H17.4561C17.5024 6.15485 17.5468 6.13663 17.5795 6.10424C17.6122 6.07186 17.6306 6.02796 17.6306 5.98219V0.172711C17.6306 0.126905 17.6122 0.0829751 17.5794 0.0505855C17.5466 0.0181959 17.5022 0 17.4558 0Z" fill="white"/>
<path d="M23.9545 4.75764C23.9538 4.75653 23.9528 4.75561 23.9517 4.75495L23.9487 4.75293C23.9508 4.75431 23.9527 4.75589 23.9545 4.75764Z" fill="white"/>
<path d="M23.9612 4.7638C23.9612 4.7638 23.9599 4.76245 23.9594 4.76177C23.9586 4.76108 23.9577 4.76033 23.9569 4.75952C23.9585 4.76083 23.9599 4.76226 23.9612 4.7638Z" fill="white"/>
<path d="M23.9972 1.38945L24.0003 1.382V0.0888634C24.0002 0.0652429 23.9907 0.0426096 23.9737 0.0259279C23.9568 0.00924614 23.9339 -0.000122096 23.91 -0.000122025H21.4488C21.405 -0.000153555 21.3627 0.0161195 21.3304 0.0454663L20.2508 1.02738C20.2268 1.04929 20.197 1.06409 20.1649 1.07009C20.1327 1.07609 20.0996 1.07304 20.0691 1.0613C20.0386 1.04955 20.0121 1.02959 19.9926 1.00367C19.973 0.977754 19.9613 0.946932 19.9586 0.914719C19.9586 0.910116 19.9586 0.905294 19.9586 0.900253V0.17237C19.9586 0.149728 19.9541 0.127309 19.9453 0.106393C19.9365 0.0854779 19.9237 0.0664767 19.9075 0.0504768C19.8912 0.034477 19.872 0.0217923 19.8508 0.0131477C19.8297 0.00450313 19.807 6.85595e-05 19.7841 9.73656e-05H18.2526C18.2287 0.000154933 18.2058 0.00954151 18.1889 0.0262108C18.172 0.0428801 18.1625 0.0654801 18.1623 0.0890828V1.33137C18.1621 1.3329 18.1621 1.33445 18.1623 1.33598C18.1623 1.34025 18.1627 1.34451 18.1637 1.34869C18.1637 1.35132 18.165 1.35439 18.1659 1.3568C18.1668 1.35921 18.1681 1.36293 18.1694 1.36578C18.1697 1.36705 18.1702 1.36825 18.171 1.36929C18.174 1.37557 18.1778 1.38146 18.1823 1.38682L18.1845 1.38924C18.1855 1.39066 18.1866 1.39198 18.1878 1.39318C18.1901 1.39547 18.1926 1.3976 18.1952 1.39954L18.2018 1.40458L18.2056 1.40721L18.2096 1.40896C18.2106 1.40984 18.2117 1.41058 18.2129 1.41115L18.2173 1.41269L18.2211 1.41444L18.2255 1.41576L18.2298 1.41707L18.2344 1.41839H18.2384C18.2399 1.41859 18.2415 1.41859 18.2431 1.41839H18.2475H18.2521H21.2588C21.2758 1.41835 21.2924 1.42327 21.3066 1.43254C21.3208 1.44181 21.3319 1.45501 21.3385 1.47049C21.3451 1.48597 21.3469 1.50303 21.3437 1.51954C21.3406 1.53604 21.3325 1.55125 21.3207 1.56326L18.1623 4.78186C18.1623 4.79151 18.1623 4.80049 18.1623 4.80992C18.1621 4.81335 18.1621 4.81679 18.1623 4.82022V6.11336C18.1624 6.13698 18.1719 6.15961 18.1889 6.17629C18.2058 6.19298 18.2287 6.20234 18.2526 6.20234H20.7138C20.7576 6.20227 20.7999 6.18601 20.8322 6.15675L21.9118 5.17485C21.9358 5.15293 21.9656 5.13813 21.9977 5.13213C22.0299 5.12613 22.0631 5.12918 22.0935 5.14092C22.124 5.15267 22.1505 5.17263 22.17 5.19855C22.1896 5.22447 22.2014 5.25529 22.204 5.2875C22.204 5.29211 22.204 5.29693 22.204 5.30197V6.03007C22.204 6.07576 22.2224 6.11958 22.2551 6.15189C22.2878 6.18419 22.3321 6.20234 22.3783 6.20234H23.9098C23.9337 6.20229 23.9566 6.1929 23.9735 6.17623C23.9904 6.15956 23.9999 6.13696 24 6.11336V4.87107C24.0003 4.86954 24.0003 4.86799 24 4.86647C24.0001 4.86212 23.9996 4.85778 23.9987 4.85353C23.9987 4.8509 23.9974 4.84784 23.9965 4.84543C23.9956 4.84301 23.9943 4.83929 23.9932 4.83644C23.9928 4.83515 23.9922 4.83395 23.9914 4.83293C23.9884 4.82665 23.9846 4.82076 23.9801 4.8154L23.9781 4.81299C23.977 4.81156 23.9758 4.81024 23.9745 4.80904C23.9723 4.80669 23.9699 4.80457 23.9672 4.80269L23.9608 4.79764L23.9568 4.79501L23.953 4.79326C23.9519 4.79243 23.9507 4.7917 23.9495 4.79107L23.9453 4.78954L23.9413 4.78778L23.9371 4.78647L23.9326 4.78515L23.928 4.78384H23.924C23.9224 4.78362 23.9209 4.78362 23.9193 4.78384C23.9179 4.78362 23.9164 4.78362 23.9149 4.78384H20.8699C20.8529 4.78382 20.8363 4.77886 20.8222 4.76959C20.808 4.76032 20.797 4.74714 20.7904 4.7317C20.7837 4.71625 20.7819 4.69923 20.785 4.68274C20.7881 4.66625 20.796 4.65102 20.8078 4.63896L23.9666 1.42233L23.9972 1.38945Z" fill="white"/>
</g>
</g>
<defs>
<clipPath id="clip0_620_42653">
<rect width="24" height="6.20225" fill="white"/>
</clipPath>
<clipPath id="clip1_620_42653">
<rect width="24" height="6.20225" fill="white"/>
</clipPath>
</defs>
</svg>
