<svg width="77" height="24" viewBox="0 0 77 24" fill="none" xmlns="http://www.w3.org/2000/svg">
<g filter="url(#filter0_i_686_429)">
<mask id="path-1-inside-1_686_429" fill="white">
<path d="M0 12C0 5.37258 5.37258 0 12 0H65C71.6274 0 77 5.37258 77 12C77 18.6274 71.6274 24 65 24H12C5.37258 24 0 18.6274 0 12Z"/>
</mask>
<path d="M0 12C0 5.37258 5.37258 0 12 0H65C71.6274 0 77 5.37258 77 12C77 18.6274 71.6274 24 65 24H12C5.37258 24 0 18.6274 0 12Z" fill="#0079E4"/>
<path d="M12 0V1H65V0V-1H12V0ZM65 24V23H12V24V25H65V24ZM12 24V23C5.92487 23 1 18.0751 1 12H0H-1C-1 19.1797 4.8203 25 12 25V24ZM77 12H76C76 18.0751 71.0751 23 65 23V24V25C72.1797 25 78 19.1797 78 12H77ZM65 0V1C71.0751 1 76 5.92487 76 12H77H78C78 4.8203 72.1797 -1 65 -1V0ZM12 0V-1C4.8203 -1 -1 4.8203 -1 12H0H1C1 5.92487 5.92487 1 12 1V0Z" fill="#005FB9" mask="url(#path-1-inside-1_686_429)"/>
<path d="M16.8417 17H13.5455V6.81818H16.9461C17.9437 6.81818 18.8005 7.02202 19.5164 7.42969C20.2323 7.83404 20.7808 8.41572 21.162 9.17472C21.5465 9.9304 21.7387 10.8369 21.7387 11.8942C21.7387 12.9548 21.5448 13.8662 21.157 14.6286C20.7726 15.3909 20.2157 15.9775 19.4866 16.3885C18.7574 16.7962 17.8758 17 16.8417 17ZM15.0817 15.6577H16.7572C17.5327 15.6577 18.1774 15.5118 18.6911 15.2202C19.2048 14.9252 19.5893 14.4993 19.8445 13.9425C20.0997 13.3823 20.2273 12.6996 20.2273 11.8942C20.2273 11.0954 20.0997 10.4176 19.8445 9.8608C19.5926 9.30398 19.2165 8.88139 18.716 8.59304C18.2155 8.30469 17.5941 8.16051 16.8516 8.16051H15.0817V15.6577ZM26.5409 17.1541C25.7885 17.1541 25.1406 16.9934 24.597 16.6719C24.0568 16.3471 23.6392 15.8913 23.3442 15.3047C23.0525 14.7147 22.9067 14.0237 22.9067 13.2315C22.9067 12.4493 23.0525 11.7599 23.3442 11.1634C23.6392 10.5668 24.0501 10.1011 24.5771 9.76633C25.1074 9.43158 25.7272 9.2642 26.4365 9.2642C26.8674 9.2642 27.285 9.33546 27.6894 9.47798C28.0937 9.6205 28.4566 9.84422 28.7781 10.1491C29.0996 10.4541 29.3532 10.8501 29.5388 11.3374C29.7244 11.8213 29.8172 12.4096 29.8172 13.1023V13.6293H23.7469V12.5156H28.3605C28.3605 12.1245 28.281 11.7782 28.1219 11.4766C27.9628 11.1716 27.7391 10.9313 27.4507 10.7557C27.1657 10.58 26.8309 10.4922 26.4465 10.4922C26.0288 10.4922 25.6643 10.5949 25.3527 10.8004C25.0445 11.0026 24.8058 11.2678 24.6368 11.5959C24.4711 11.9207 24.3882 12.2737 24.3882 12.6548V13.5249C24.3882 14.0353 24.4777 14.4695 24.6567 14.8274C24.839 15.1854 25.0925 15.4588 25.4173 15.6477C25.7421 15.8333 26.1216 15.9261 26.5558 15.9261C26.8376 15.9261 27.0944 15.8864 27.3264 15.8068C27.5584 15.724 27.759 15.6013 27.928 15.4389C28.097 15.2765 28.2263 15.076 28.3158 14.8374L29.7227 15.0909C29.61 15.5052 29.4079 15.8681 29.1162 16.1797C28.8278 16.4879 28.4649 16.7282 28.0274 16.9006C27.5932 17.0696 27.0977 17.1541 26.5409 17.1541ZM36.9088 11.228L35.5615 11.4666C35.5052 11.2943 35.4157 11.1302 35.2931 10.9744C35.1737 10.8187 35.0113 10.6911 34.8058 10.5916C34.6003 10.4922 34.3435 10.4425 34.0352 10.4425C33.6143 10.4425 33.263 10.5369 32.9813 10.7259C32.6995 10.9115 32.5587 11.1518 32.5587 11.4467C32.5587 11.7019 32.6531 11.9074 32.8421 12.0632C33.031 12.219 33.3359 12.3466 33.7568 12.446L34.9699 12.7244C35.6725 12.8868 36.1962 13.1371 36.5409 13.4751C36.8856 13.8132 37.058 14.2524 37.058 14.7926C37.058 15.25 36.9254 15.6577 36.6602 16.0156C36.3984 16.3703 36.0322 16.6487 35.5615 16.8509C35.0942 17.053 34.5523 17.1541 33.9358 17.1541C33.0807 17.1541 32.383 16.9718 31.8428 16.6072C31.3025 16.2393 30.9711 15.7173 30.8484 15.0412L32.2852 14.8224C32.3747 15.197 32.5587 15.4804 32.8371 15.6726C33.1155 15.8615 33.4784 15.956 33.9259 15.956C34.4131 15.956 34.8025 15.8549 35.0942 15.6527C35.3859 15.4472 35.5317 15.197 35.5317 14.902C35.5317 14.6634 35.4422 14.4628 35.2632 14.3004C35.0876 14.138 34.8174 14.0154 34.4529 13.9325L33.1602 13.6491C32.4476 13.4867 31.9207 13.2282 31.5793 12.8736C31.2412 12.5189 31.0722 12.0698 31.0722 11.5263C31.0722 11.0755 31.1981 10.6811 31.45 10.343C31.7019 10.005 32.0499 9.74148 32.494 9.55256C32.9382 9.36032 33.4469 9.2642 34.0203 9.2642C34.8456 9.2642 35.4952 9.44318 35.9692 9.80114C36.4431 10.1558 36.7564 10.6314 36.9088 11.228ZM38.4124 17V9.36364H39.8989V17H38.4124ZM39.1631 8.18537C38.9046 8.18537 38.6825 8.09919 38.4969 7.92685C38.3146 7.75118 38.2235 7.54238 38.2235 7.30043C38.2235 7.05516 38.3146 6.84635 38.4969 6.67401C38.6825 6.49834 38.9046 6.41051 39.1631 6.41051C39.4216 6.41051 39.642 6.49834 39.8243 6.67401C40.0099 6.84635 40.1027 7.05516 40.1027 7.30043C40.1027 7.54238 40.0099 7.75118 39.8243 7.92685C39.642 8.09919 39.4216 8.18537 39.1631 8.18537ZM44.8204 20.0227C44.2139 20.0227 43.6919 19.9432 43.2544 19.7841C42.8202 19.625 42.4655 19.4145 42.1904 19.1527C41.9153 18.8909 41.7098 18.6042 41.574 18.2926L42.8517 17.7656C42.9411 17.9115 43.0605 18.0656 43.2096 18.228C43.3621 18.3937 43.5676 18.5346 43.8261 18.6506C44.0879 18.7666 44.4243 18.8246 44.8353 18.8246C45.3988 18.8246 45.8644 18.687 46.2323 18.4119C46.6002 18.1402 46.7842 17.706 46.7842 17.1094V15.608H46.6897C46.6002 15.7704 46.471 15.951 46.3019 16.1499C46.1362 16.3487 45.9075 16.5211 45.6159 16.6669C45.3242 16.8127 44.9447 16.8857 44.4774 16.8857C43.8741 16.8857 43.3306 16.7448 42.8467 16.4631C42.3661 16.178 41.9849 15.7588 41.7032 15.2053C41.4248 14.6484 41.2856 13.964 41.2856 13.152C41.2856 12.34 41.4232 11.6439 41.6982 11.0639C41.9767 10.4839 42.3578 10.0398 42.8417 9.73153C43.3256 9.41998 43.8741 9.2642 44.4873 9.2642C44.9613 9.2642 45.3441 9.34375 45.6357 9.50284C45.9274 9.65862 46.1545 9.84091 46.3169 10.0497C46.4826 10.2585 46.6102 10.4425 46.6997 10.6016H46.809V9.36364H48.2657V17.169C48.2657 17.8253 48.1133 18.3639 47.8083 18.7848C47.5034 19.2057 47.0908 19.5173 46.5704 19.7195C46.0534 19.9216 45.47 20.0227 44.8204 20.0227ZM44.8055 15.6527C45.233 15.6527 45.5943 15.5533 45.8893 15.3544C46.1876 15.1522 46.413 14.8639 46.5654 14.4893C46.7212 14.1115 46.7991 13.6591 46.7991 13.1321C46.7991 12.6184 46.7229 12.166 46.5704 11.7749C46.4179 11.3838 46.1942 11.0788 45.8992 10.8601C45.6043 10.638 45.2397 10.527 44.8055 10.527C44.358 10.527 43.9852 10.643 43.6869 10.875C43.3886 11.1037 43.1632 11.4152 43.0107 11.8097C42.8616 12.2041 42.787 12.6449 42.787 13.1321C42.787 13.6326 42.8633 14.0717 43.0157 14.4496C43.1682 14.8274 43.3936 15.1224 43.6919 15.3345C43.9935 15.5466 44.3647 15.6527 44.8055 15.6527ZM51.4658 12.4659V17H49.9793V9.36364H51.4062V10.6065H51.5006C51.6763 10.2022 51.9514 9.87737 52.3259 9.6321C52.7038 9.38684 53.1794 9.2642 53.7528 9.2642C54.2731 9.2642 54.7289 9.37358 55.12 9.59233C55.5111 9.80777 55.8143 10.1293 56.0298 10.5568C56.2452 10.9844 56.3529 11.513 56.3529 12.1428V17H54.8664V12.3217C54.8664 11.7682 54.7222 11.3357 54.4339 11.0241C54.1455 10.7093 53.7495 10.5518 53.2457 10.5518C52.901 10.5518 52.5944 10.6264 52.3259 10.7756C52.0608 10.9247 51.8503 11.1435 51.6945 11.4318C51.5421 11.7169 51.4658 12.0616 51.4658 12.4659ZM63.7888 11.228L62.4415 11.4666C62.3852 11.2943 62.2957 11.1302 62.1731 10.9744C62.0537 10.8187 61.8913 10.6911 61.6858 10.5916C61.4803 10.4922 61.2235 10.4425 60.9152 10.4425C60.4943 10.4425 60.143 10.5369 59.8613 10.7259C59.5795 10.9115 59.4387 11.1518 59.4387 11.4467C59.4387 11.7019 59.5331 11.9074 59.7221 12.0632C59.911 12.219 60.2159 12.3466 60.6368 12.446L61.8499 12.7244C62.5525 12.8868 63.0762 13.1371 63.4209 13.4751C63.7656 13.8132 63.938 14.2524 63.938 14.7926C63.938 15.25 63.8054 15.6577 63.5402 16.0156C63.2784 16.3703 62.9122 16.6487 62.4415 16.8509C61.9742 17.053 61.4323 17.1541 60.8158 17.1541C59.9607 17.1541 59.263 16.9718 58.7228 16.6072C58.1825 16.2393 57.8511 15.7173 57.7284 15.0412L59.1652 14.8224C59.2547 15.197 59.4387 15.4804 59.7171 15.6726C59.9955 15.8615 60.3584 15.956 60.8059 15.956C61.2931 15.956 61.6825 15.8549 61.9742 15.6527C62.2659 15.4472 62.4117 15.197 62.4117 14.902C62.4117 14.6634 62.3222 14.4628 62.1432 14.3004C61.9676 14.138 61.6974 14.0154 61.3329 13.9325L60.0402 13.6491C59.3276 13.4867 58.8007 13.2282 58.4593 12.8736C58.1212 12.5189 57.9522 12.0698 57.9522 11.5263C57.9522 11.0755 58.0781 10.6811 58.33 10.343C58.5819 10.005 58.9299 9.74148 59.374 9.55256C59.8182 9.36032 60.3269 9.2642 60.9003 9.2642C61.7256 9.2642 62.3752 9.44318 62.8492 9.80114C63.3231 10.1558 63.6364 10.6314 63.7888 11.228Z" fill="#E9F4FF"/>
</g>
<defs>
<filter id="filter0_i_686_429" x="0" y="0" width="77" height="24" filterUnits="userSpaceOnUse" color-interpolation-filters="sRGB">
<feFlood flood-opacity="0" result="BackgroundImageFix"/>
<feBlend mode="normal" in="SourceGraphic" in2="BackgroundImageFix" result="shape"/>
<feColorMatrix in="SourceAlpha" type="matrix" values="0 0 0 0 0 0 0 0 0 0 0 0 0 0 0 0 0 0 127 0" result="hardAlpha"/>
<feOffset dy="3"/>
<feComposite in2="hardAlpha" operator="arithmetic" k2="-1" k3="1"/>
<feColorMatrix type="matrix" values="0 0 0 0 0 0 0 0 0 0.354796 0 0 0 0 0.668541 0 0 0 0.64 0"/>
<feBlend mode="normal" in2="shape" result="effect1_innerShadow_686_429"/>
</filter>
</defs>
</svg>
