<svg width="18" height="18" viewBox="0 0 18 18" fill="none" xmlns="http://www.w3.org/2000/svg">
<path d="M4.04883 6.22559C4.21355 6.22561 4.37181 6.29173 4.48828 6.4082C4.60448 6.52457 4.66981 6.68223 4.66992 6.84668V16.5225C4.66981 16.6869 4.60448 16.8446 4.48828 16.9609C4.37181 17.0774 4.21355 17.1435 4.04883 17.1436H2.71875C1.22192 17.1436 0.0078983 15.9294 0.0078125 14.4326V6.84668C0.00786899 6.76527 0.0235399 6.68459 0.0546875 6.60938C0.0858666 6.5341 0.131871 6.46584 0.189453 6.4082C0.247018 6.35064 0.31544 6.30465 0.390625 6.27344C0.465991 6.24222 0.547331 6.22559 0.628906 6.22559H4.04883ZM10.293 6.22559C10.4577 6.22559 10.6159 6.29171 10.7324 6.4082C10.8488 6.52459 10.9149 6.68212 10.915 6.84668V16.5225C10.9149 16.687 10.8488 16.8445 10.7324 16.9609C10.6159 17.0774 10.4577 17.1436 10.293 17.1436H8.96289C7.46612 17.1435 6.25204 15.9294 6.25195 14.4326V6.84668C6.25207 6.68209 6.31818 6.5246 6.43457 6.4082C6.55097 6.29181 6.70845 6.22568 6.87305 6.22559H10.293ZM16.5381 6.22559C16.7028 6.22561 16.8611 6.29173 16.9775 6.4082C17.0937 6.52457 17.1591 6.68224 17.1592 6.84668V16.5225C17.1591 16.6869 17.0937 16.8446 16.9775 16.9609C16.8611 17.0774 16.7028 17.1435 16.5381 17.1436H15.208C13.7112 17.1436 12.4972 15.9294 12.4971 14.4326V6.84668C12.4972 6.6822 12.5625 6.52457 12.6787 6.4082C12.7952 6.29171 12.9534 6.22559 13.1182 6.22559H16.5381ZM14.4697 0.0136719C15.9665 0.0136719 17.1805 1.22692 17.1807 2.72363V4.0332C17.1806 4.19767 17.1152 4.35531 16.999 4.47168C16.8825 4.58817 16.7243 4.6543 16.5596 4.6543H13.1211C12.9563 4.6543 12.7981 4.58817 12.6816 4.47168C12.5653 4.35528 12.4991 4.19778 12.499 4.0332V0.635742C12.499 0.470997 12.5652 0.312783 12.6816 0.196289C12.7981 0.079794 12.9563 0.0136719 13.1211 0.0136719H14.4697ZM8.26074 0.00683594C9.72732 0.00856503 10.9155 1.19849 10.9131 2.66504V4.02832C10.9129 4.19312 10.8471 4.35131 10.7305 4.46777C10.6139 4.58419 10.4558 4.64936 10.291 4.64941L2.65234 4.6416C1.18589 4.64048 -0.000862659 3.45003 0 1.98438L0.00195312 0.620117C0.00230943 0.455693 0.0672382 0.297835 0.183594 0.181641C0.300062 0.0653434 0.458456 -1.58749e-07 0.623047 0L8.26074 0.00683594Z" fill="white"/>
</svg>
