<svg width="18" height="18" viewBox="0 0 18 18" fill="none" xmlns="http://www.w3.org/2000/svg">
<path d="M17.2404 8.8732C17.2462 8.77376 17.2485 8.67317 17.2485 8.57259C17.2485 8.472 17.2485 8.37025 17.2404 8.27082C17.2404 8.2477 17.2404 8.22457 17.2404 8.20145C17.1429 5.9622 16.1669 3.84997 14.5215 2.31733C12.8761 0.784683 10.6922 -0.046451 8.43777 0.00200586C6.1833 0.0504627 4.0376 0.974655 2.46041 2.57656C0.883216 4.17847 0 6.33067 0 8.57201C0 10.8134 0.883216 12.9655 2.46041 14.5675C4.0376 16.1694 6.1833 17.0936 8.43777 17.142C10.6922 17.1905 12.8761 16.3593 14.5215 14.8267C16.1669 13.294 17.1429 11.1818 17.2404 8.94257C17.2404 8.91944 17.2404 8.89632 17.2404 8.8732ZM16.1318 8.74948C16.0853 9.64978 15.6867 10.4964 15.0212 11.1088C14.3556 11.7212 13.4757 12.051 12.569 12.0279C11.6624 12.0047 10.8006 11.6305 10.1676 10.9849C9.53455 10.3393 9.18027 9.47349 9.18027 8.57201C9.18027 7.67052 9.53455 6.8047 10.1676 6.15912C10.8006 5.51354 11.6624 5.13928 12.569 5.11613C13.4757 5.09299 14.3556 5.42278 15.0212 6.0352C15.6867 6.64763 16.0853 7.49424 16.1318 8.39453C16.1318 8.4535 16.1318 8.51015 16.1318 8.57259C16.1318 8.63502 16.1341 8.69052 16.1318 8.74948ZM12.7107 13.1326C11.9965 13.3436 11.2425 13.3859 10.5088 13.2562C9.77518 13.1265 9.08213 12.8283 8.48486 12.3854C7.8876 11.9425 7.40261 11.3672 7.06851 10.7051C6.73442 10.0431 6.56045 9.31266 6.56045 8.57201C6.56045 7.83135 6.73442 7.10093 7.06851 6.43889C7.40261 5.77685 7.8876 5.20148 8.48486 4.75859C9.08213 4.3157 9.77518 4.01753 10.5088 3.88782C11.2425 3.7581 11.9965 3.80042 12.7107 4.01141H12.6584C11.4538 4.03047 10.3051 4.51947 9.46003 5.37289C8.61497 6.22631 8.14135 7.37574 8.14135 8.57316C8.14135 9.77059 8.61497 10.92 9.46003 11.7734C10.3051 12.6269 11.4538 13.1159 12.6584 13.1349L12.7107 13.1326ZM11.3498 2.70954C9.79981 2.73117 8.32072 3.35834 7.23236 4.45542C6.14399 5.55249 5.53383 7.03129 5.53383 8.57201C5.53383 10.1127 6.14399 11.5915 7.23236 12.6886C8.32072 13.7857 9.79981 14.4128 11.3498 14.4345C11.4963 14.4345 11.6406 14.4275 11.7848 14.4171C10.8653 14.6969 9.89258 14.7584 8.9448 14.5967C7.99702 14.4351 7.10058 14.0548 6.32748 13.4864C5.55438 12.918 4.92615 12.1773 4.49326 11.3238C4.06036 10.4703 3.83486 9.52782 3.83486 8.57201C3.83486 7.6162 4.06036 6.67371 4.49326 5.82023C4.92615 4.96674 5.55438 4.22605 6.32748 3.65764C7.10058 3.08922 7.99702 2.70892 8.9448 2.54727C9.89258 2.38563 10.8653 2.44714 11.7848 2.72688C11.6406 2.71647 11.4963 2.70954 11.3498 2.70954ZM1.1133 8.57259C1.11291 7.41907 1.38154 6.28117 1.8981 5.24822C2.41465 4.21527 3.16507 3.31539 4.09044 2.61923C5.01581 1.92308 6.09093 1.4496 7.2314 1.23598C8.37187 1.02235 9.54663 1.07439 10.6635 1.38801C10.4401 1.36836 10.2156 1.35564 9.98762 1.35564C8.07767 1.37967 6.25414 2.15066 4.91207 3.50159C3.57 4.85253 2.81745 6.67463 2.81745 8.57316C2.81745 10.4717 3.57 12.2938 4.91207 13.6447C6.25414 14.9957 8.07767 15.7667 9.98762 15.7907C10.2203 15.7907 10.4401 15.778 10.6635 15.7583C9.54654 16.072 8.37167 16.124 7.23111 15.9103C6.09056 15.6966 5.01537 15.223 4.08998 14.5267C3.16459 13.8305 2.41419 12.9304 1.89771 11.8973C1.38123 10.8642 1.11273 9.7262 1.1133 8.57259Z" fill="white"/>
</svg>
